<svg width="800" height="600" xmlns="http://www.w3.org/2000/svg">
  <!-- Sky Background -->
  <rect width="800" height="400" fill="#93c5fd"/>

  <!-- Clouds -->
  <ellipse cx="100" cy="80" rx="40" ry="25" fill="#e0e7ff"/>
  <ellipse cx="130" cy="85" rx="35" ry="20" fill="#e0e7ff"/>
  <ellipse cx="650" cy="100" rx="50" ry="30" fill="#e0e7ff"/>

  <!-- Ground -->
  <rect y="400" width="800" height="200" fill="#86efac"/>

  <!-- House -->
  <rect x="200" y="250" width="400" height="250" fill="#fbbf24"/>

  <!-- Roof -->
  <polygon points="180,250 400,150 620,250" fill="#dc2626"/>

  <!-- Garage Door -->
  <rect x="230" y="350" width="140" height="150" fill="#9ca3af"/>
  <line x1="230" y1="380" x2="370" y2="380" stroke="#6b7280" stroke-width="2"/>
  <line x1="230" y1="410" x2="370" y2="410" stroke="#6b7280" stroke-width="2"/>
  <line x1="230" y1="440" x2="370" y2="440" stroke="#6b7280" stroke-width="2"/>
  <line x1="230" y1="470" x2="370" y2="470" stroke="#6b7280" stroke-width="2"/>

  <!-- Front Door -->
  <rect x="430" y="370" width="100" height="130" fill="#92400e" rx="5"/>
  <circle cx="510" cy="440" r="6" fill="#fbbf24"/>

  <!-- Windows -->
  <rect x="250" y="280" width="80" height="60" fill="#bfdbfe" stroke="#1e40af" stroke-width="3"/>
  <line x1="290" y1="280" x2="290" y2="340" stroke="#1e40af" stroke-width="3"/>
  <line x1="250" y1="310" x2="330" y2="310" stroke="#1e40af" stroke-width="3"/>

  <rect x="470" y="280" width="80" height="60" fill="#bfdbfe" stroke="#1e40af" stroke-width="3"/>
  <line x1="510" y1="280" x2="510" y2="340" stroke="#1e40af" stroke-width="3"/>
  <line x1="470" y1="310" x2="550" y2="310" stroke="#1e40af" stroke-width="3"/>

  <!-- Chimney -->
  <rect x="500" y="180" width="40" height="70" fill="#991b1b"/>

  <!-- Address Sign on Lawn -->
  <rect x="100" y="450" width="80" height="100" fill="#374151" rx="5"/>
  <rect x="110" y="460" width="60" height="60" fill="#fff"/>
  <text x="140" y="505" font-family="Arial, sans-serif" font-size="36" fill="#2563eb" text-anchor="middle" font-weight="bold">567</text>
  <text x="140" y="540" font-family="Arial, sans-serif" font-size="12" fill="#fff" text-anchor="middle">Maple Ave</text>

  <!-- Mailbox -->
  <rect x="680" y="470" width="60" height="40" fill="#dc2626" rx="20"/>
  <rect x="680" y="490" width="60" height="20" fill="#991b1b"/>
  <rect x="700" y="510" width="20" height="90" fill="#6b7280"/>

  <!-- Walkway -->
  <polygon points="400,500 420,600 380,600" fill="#9ca3af"/>

  <!-- GPS Crosshair Overlay -->
  <circle cx="400" cy="350" r="40" fill="none" stroke="#10b981" stroke-width="4" opacity="0.7"/>
  <line x1="400" y1="290" x2="400" y2="330" stroke="#10b981" stroke-width="4" opacity="0.7"/>
  <line x1="400" y1="370" x2="400" y2="410" stroke="#10b981" stroke-width="4" opacity="0.7"/>
  <line x1="340" y1="350" x2="380" y2="350" stroke="#10b981" stroke-width="4" opacity="0.7"/>
  <line x1="420" y1="350" x2="460" y2="350" stroke="#10b981" stroke-width="4" opacity="0.7"/>

  <!-- GPS Coordinates Overlay -->
  <rect x="10" y="10" width="300" height="60" fill="#000" opacity="0.8" rx="8"/>
  <text x="20" y="35" font-family="monospace" font-size="14" fill="#10b981" font-weight="bold">GPS: 37.7749°N, 122.4194°W</text>
  <text x="20" y="55" font-family="monospace" font-size="12" fill="#fff">Accuracy: ±5m</text>

  <!-- Timestamp -->
  <rect x="10" y="560" width="200" height="30" fill="#000" opacity="0.7" rx="5"/>
  <text x="20" y="582" font-family="monospace" font-size="14" fill="#fff">2024-11-19 14:45:35</text>
</svg>
